<mxfile host="65bd71144e">
    <diagram id="SI7tuCP2dQLLvXjDpIHG" name="Page-1">
        <mxGraphModel dx="1074" dy="1918" grid="1" gridSize="10" guides="1" tooltips="1" connect="1" arrows="1" fold="1" page="1" pageScale="1" pageWidth="827" pageHeight="1169" math="0" shadow="0">
            <root>
                <mxCell id="0"/>
                <mxCell id="1" parent="0"/>
                <mxCell id="208" value="" style="edgeStyle=none;html=1;" parent="1" source="3" target="51" edge="1">
                    <mxGeometry relative="1" as="geometry"/>
                </mxCell>
                <mxCell id="3" value="Start" style="strokeWidth=2;html=1;shape=mxgraph.flowchart.terminator;whiteSpace=wrap;" parent="1" vertex="1">
                    <mxGeometry x="364" y="-1110" width="100" height="60" as="geometry"/>
                </mxCell>
                <mxCell id="10" value="Stop" style="strokeWidth=2;html=1;shape=mxgraph.flowchart.terminator;whiteSpace=wrap;rounded=1;" parent="1" vertex="1">
                    <mxGeometry x="364" y="-490" width="100" height="60" as="geometry"/>
                </mxCell>
                <mxCell id="215" style="edgeStyle=none;html=1;fontSize=12;entryX=0;entryY=0.5;entryDx=0;entryDy=0;entryPerimeter=0;rounded=0;" parent="1" source="51" target="10" edge="1">
                    <mxGeometry relative="1" as="geometry">
                        <mxPoint x="170" y="-700" as="targetPoint"/>
                        <Array as="points">
                            <mxPoint x="320" y="-955"/>
                            <mxPoint x="320" y="-460"/>
                        </Array>
                    </mxGeometry>
                </mxCell>
                <mxCell id="232" value="" style="edgeStyle=none;html=1;" edge="1" parent="1" source="51" target="230">
                    <mxGeometry relative="1" as="geometry"/>
                </mxCell>
                <mxCell id="51" value="for integer1&amp;nbsp;= 1000, &lt;br&gt;integer1 &amp;lt;= 2000,&lt;br&gt;&amp;nbsp;integer1++" style="rhombus;whiteSpace=wrap;html=1;" parent="1" vertex="1">
                    <mxGeometry x="341" y="-1020" width="146" height="130" as="geometry"/>
                </mxCell>
                <mxCell id="245" style="edgeStyle=none;rounded=0;html=1;endArrow=none;endFill=0;" edge="1" parent="1" source="212">
                    <mxGeometry relative="1" as="geometry">
                        <mxPoint x="650" y="-540" as="targetPoint"/>
                        <Array as="points">
                            <mxPoint x="414" y="-540"/>
                        </Array>
                    </mxGeometry>
                </mxCell>
                <mxCell id="212" value="&lt;font style=&quot;font-size: 12px&quot;&gt;print integer1&lt;/font&gt;" style="shape=parallelogram;perimeter=parallelogramPerimeter;whiteSpace=wrap;html=1;fixedSize=1;fontSize=8;" parent="1" vertex="1">
                    <mxGeometry x="354" y="-640" width="120" height="60" as="geometry"/>
                </mxCell>
                <mxCell id="223" value="yes" style="text;html=1;strokeColor=none;fillColor=none;align=center;verticalAlign=middle;whiteSpace=wrap;rounded=0;fontSize=12;" parent="1" vertex="1">
                    <mxGeometry x="427" y="-890" width="60" height="30" as="geometry"/>
                </mxCell>
                <mxCell id="227" value="no" style="text;html=1;strokeColor=none;fillColor=none;align=center;verticalAlign=middle;whiteSpace=wrap;rounded=0;fontSize=12;" parent="1" vertex="1">
                    <mxGeometry x="294" y="-990" width="60" height="30" as="geometry"/>
                </mxCell>
                <mxCell id="235" style="edgeStyle=none;html=1;entryX=0.5;entryY=0;entryDx=0;entryDy=0;" edge="1" parent="1" source="230" target="212">
                    <mxGeometry relative="1" as="geometry"/>
                </mxCell>
                <mxCell id="242" style="edgeStyle=none;html=1;entryX=0.558;entryY=0.017;entryDx=0;entryDy=0;entryPerimeter=0;rounded=0;" edge="1" parent="1" source="230" target="239">
                    <mxGeometry relative="1" as="geometry">
                        <Array as="points">
                            <mxPoint x="567" y="-795"/>
                        </Array>
                    </mxGeometry>
                </mxCell>
                <mxCell id="230" value="if counter % 5&lt;br&gt;==0" style="rhombus;whiteSpace=wrap;html=1;" vertex="1" parent="1">
                    <mxGeometry x="341" y="-860" width="146" height="130" as="geometry"/>
                </mxCell>
                <mxCell id="236" value="yes" style="text;html=1;strokeColor=none;fillColor=none;align=center;verticalAlign=middle;whiteSpace=wrap;rounded=0;fontSize=12;" vertex="1" parent="1">
                    <mxGeometry x="414" y="-700" width="60" height="30" as="geometry"/>
                </mxCell>
                <mxCell id="244" style="edgeStyle=none;rounded=0;html=1;endArrow=classic;endFill=1;entryX=1;entryY=0.5;entryDx=0;entryDy=0;" edge="1" parent="1" target="51">
                    <mxGeometry relative="1" as="geometry">
                        <mxPoint x="710" y="-540" as="targetPoint"/>
                        <mxPoint x="560" y="-540" as="sourcePoint"/>
                        <Array as="points">
                            <mxPoint x="650" y="-540"/>
                            <mxPoint x="650" y="-955"/>
                        </Array>
                    </mxGeometry>
                </mxCell>
                <mxCell id="246" style="edgeStyle=none;rounded=0;html=1;endArrow=none;endFill=0;" edge="1" parent="1" source="239">
                    <mxGeometry relative="1" as="geometry">
                        <mxPoint x="560" y="-540" as="targetPoint"/>
                    </mxGeometry>
                </mxCell>
                <mxCell id="239" value="&lt;font style=&quot;font-size: 12px&quot;&gt;print \ninteger1&lt;/font&gt;" style="shape=parallelogram;perimeter=parallelogramPerimeter;whiteSpace=wrap;html=1;fixedSize=1;fontSize=8;" vertex="1" parent="1">
                    <mxGeometry x="500" y="-640" width="120" height="60" as="geometry"/>
                </mxCell>
                <mxCell id="243" value="no" style="text;html=1;strokeColor=none;fillColor=none;align=center;verticalAlign=middle;whiteSpace=wrap;rounded=0;fontSize=12;" vertex="1" parent="1">
                    <mxGeometry x="487" y="-830" width="60" height="30" as="geometry"/>
                </mxCell>
            </root>
        </mxGraphModel>
    </diagram>
</mxfile>